<svg width="31" height="23" viewBox="0 0 31 23" fill="none" xmlns="http://www.w3.org/2000/svg">
<path d="M26.018 1.94257C24.1218 1.0837 22.0885 0.450915 19.9625 0.0884954C19.9237 0.0815008 19.8851 0.0989807 19.8651 0.133941C19.6036 0.593082 19.314 1.19207 19.1111 1.66287C16.8245 1.32493 14.5496 1.32493 12.3098 1.66287C12.1069 1.1816 11.8067 0.593082 11.5441 0.133941C11.5241 0.100147 11.4854 0.0826673 11.4467 0.0884954C9.3219 0.449757 7.28855 1.08254 5.39121 1.94257C5.37479 1.94956 5.36071 1.96123 5.35136 1.97636C1.49453 7.66444 0.437978 13.2127 0.956286 18.6922C0.958631 18.719 0.973875 18.7446 0.994983 18.7609C3.53961 20.6057 6.00452 21.7256 8.42366 22.4679C8.46237 22.4796 8.5034 22.4656 8.52803 22.4341C9.10028 21.6627 9.61039 20.8493 10.0478 19.9939C10.0736 19.9438 10.0489 19.8843 9.99618 19.8645C9.18706 19.5615 8.41662 19.1921 7.67551 18.7726C7.61689 18.7388 7.6122 18.656 7.66612 18.6164C7.82208 18.5011 7.97808 18.381 8.127 18.2598C8.15394 18.2377 8.19148 18.233 8.22316 18.247C13.0919 20.4414 18.363 20.4414 23.1743 18.247C23.206 18.2319 23.2435 18.2365 23.2716 18.2587C23.4206 18.3799 23.5765 18.5011 23.7337 18.6164C23.7876 18.656 23.7841 18.7388 23.7255 18.7726C22.9844 19.2003 22.2139 19.5615 21.4036 19.8634C21.3509 19.8832 21.3274 19.9438 21.3532 19.9939C21.8 20.8481 22.3101 21.6615 22.8718 22.433C22.8952 22.4656 22.9374 22.4796 22.9761 22.4679C25.407 21.7256 27.8719 20.6057 30.4165 18.7609C30.4388 18.7446 30.4529 18.7202 30.4552 18.6934C31.0756 12.3585 29.4163 6.8557 26.0567 1.97752C26.0484 1.96123 26.0344 1.94956 26.018 1.94257ZM10.7748 15.3558C9.30899 15.3558 8.10118 14.0273 8.10118 12.3958C8.10118 10.7643 9.28557 9.4358 10.7748 9.4358C12.2758 9.4358 13.4719 10.7759 13.4484 12.3958C13.4484 14.0273 12.264 15.3558 10.7748 15.3558ZM20.6602 15.3558C19.1944 15.3558 17.9866 14.0273 17.9866 12.3958C17.9866 10.7643 19.1709 9.4358 20.6602 9.4358C22.1612 9.4358 23.3572 10.7759 23.3338 12.3958C23.3338 14.0273 22.1612 15.3558 20.6602 15.3558Z" fill="#040505"/>
</svg>
