<svg width="30" height="24" viewBox="0 0 30 24" fill="none" xmlns="http://www.w3.org/2000/svg">
<path d="M26.5852 6.05933C26.6037 6.31841 26.6037 6.57755 26.6037 6.83663C26.6037 14.739 20.5891 23.8443 9.59601 23.8443C6.20926 23.8443 3.06313 22.8634 0.416656 21.1609C0.897849 21.2164 1.36047 21.2349 1.86018 21.2349C4.65465 21.2349 7.22713 20.2911 9.28139 18.681C6.65342 18.6254 4.45111 16.9043 3.69232 14.5354C4.06249 14.5909 4.4326 14.6279 4.82128 14.6279C5.35796 14.6279 5.89469 14.5539 6.39434 14.4244C3.65535 13.8692 1.60104 11.4633 1.60104 8.55775V8.48375C2.3968 8.92792 3.32221 9.20551 4.303 9.24248C2.69291 8.16907 1.63807 6.33693 1.63807 4.26416C1.63807 3.15377 1.93412 2.1359 2.45234 1.24757C5.39493 4.87489 9.81806 7.24371 14.7778 7.50285C14.6853 7.05869 14.6298 6.59606 14.6298 6.13339C14.6298 2.83915 17.2948 0.155701 20.6075 0.155701C22.3286 0.155701 23.8831 0.877462 24.975 2.04339C26.326 1.78431 27.6215 1.2846 28.7689 0.599866C28.3247 1.9879 27.3809 3.15383 26.141 3.89405C27.3439 3.76456 28.5098 3.43137 29.5832 2.96875C28.769 4.15313 27.7511 5.20797 26.5852 6.05933Z" fill="#040505"/>
</svg>
